<svg xmlns="http://www.w3.org/2000/svg" xmlns:xlink="http://www.w3.org/1999/xlink" width="1920" zoomAndPan="magnify" viewBox="0 0 1440 809.999993" height="1080" preserveAspectRatio="xMidYMid meet" version="1.2"><defs><clipPath id="1e9099cdcc"><path d="M 36.386719 321 L 62 321 L 62 383 L 36.386719 383 Z M 36.386719 321 "/></clipPath><clipPath id="83e8b43da9"><path d="M 36.386719 320 L 62 320 L 62 384 L 36.386719 384 Z M 36.386719 320 "/></clipPath><clipPath id="912ef60676"><path d="M 231 256.917969 L 258 256.917969 L 258 384 L 231 384 Z M 231 256.917969 "/></clipPath><clipPath id="be1bdd6070"><path d="M 257 382 L 282 382 L 282 508.917969 L 257 508.917969 Z M 257 382 "/></clipPath><clipPath id="5071db9244"><path d="M 256 382 L 283 382 L 283 508.917969 L 256 508.917969 Z M 256 382 "/></clipPath><clipPath id="06f6872ea7"><path d="M 305 382 L 331.136719 382 L 331.136719 414 L 305 414 Z M 305 382 "/></clipPath></defs><g id="832c847ae3"><g clip-rule="nonzero" clip-path="url(#1e9099cdcc)"><path style=" stroke:none;fill-rule:evenodd;fill:#ffffff;fill-opacity:1;" d="M 48.78125 321.203125 C 55.523438 321.203125 61.039062 326.71875 61.039062 333.460938 L 61.039062 382.917969 L 36.523438 382.917969 L 36.523438 333.460938 C 36.523438 326.71875 42.042969 321.203125 48.78125 321.203125 Z M 48.78125 321.203125 "/></g><g clip-rule="nonzero" clip-path="url(#83e8b43da9)"><path style="fill:none;stroke-width:6.94;stroke-linecap:butt;stroke-linejoin:miter;stroke:#000000;stroke-opacity:1;stroke-miterlimit:2.613;" d="M 416.617579 2902.220071 C 645.801122 2902.220071 833.290787 3089.709736 833.290787 3318.893278 L 833.290787 5000.05946 L -0.0556281 5000.05946 L -0.0556281 3318.893278 C -0.0556281 3089.709736 187.56682 2902.220071 416.617579 2902.220071 Z M 416.617579 2902.220071 " transform="matrix(0.0294183,0,0,0.0294183,36.525074,235.824779)"/></g><path style="fill-rule:evenodd;fill:#ffffff;fill-opacity:1;stroke-width:6.94;stroke-linecap:butt;stroke-linejoin:miter;stroke:#000000;stroke-opacity:1;stroke-miterlimit:2.613;" d="M 2083.310409 1223.975116 C 2312.493951 1223.975116 2499.983616 1411.464781 2499.983616 1640.648323 L 2499.983616 5000.05946 L 1666.637201 5000.05946 L 1666.637201 1640.648323 C 1666.637201 1411.464781 1854.126866 1223.975116 2083.310409 1223.975116 Z M 2083.310409 1223.975116 " transform="matrix(0.0294183,0,0,0.0294183,36.525074,235.824779)"/><path style="fill-rule:evenodd;fill:#ffffff;fill-opacity:1;stroke-width:6.94;stroke-linecap:butt;stroke-linejoin:miter;stroke:#000000;stroke-opacity:1;stroke-miterlimit:2.613;" d="M 3750.003238 3137.246067 C 3979.186781 3137.246067 4166.676446 3324.735732 4166.676446 3553.919275 L 4166.676446 5000.05946 L 3333.330031 5000.05946 L 3333.330031 3553.919275 C 3333.330031 3324.735732 3520.819696 3137.246067 3750.003238 3137.246067 Z M 3750.003238 3137.246067 " transform="matrix(0.0294183,0,0,0.0294183,36.525074,235.824779)"/><path style="fill-rule:evenodd;fill:#ffffff;fill-opacity:1;stroke-width:6.94;stroke-linecap:butt;stroke-linejoin:miter;stroke:#000000;stroke-opacity:1;stroke-miterlimit:2.613;" d="M 5416.696068 1953.086837 C 5645.87961 1953.086837 5833.369275 2140.576502 5833.369275 2369.760045 L 5833.369275 5000.05946 L 5000.02286 5000.05946 L 5000.02286 2369.760045 C 5000.02286 2140.576502 5187.512525 1953.086837 5416.696068 1953.086837 Z M 5416.696068 1953.086837 " transform="matrix(0.0294183,0,0,0.0294183,36.525074,235.824779)"/><path style=" stroke:none;fill-rule:evenodd;fill:#ffffff;fill-opacity:1;" d="M 244.90625 257.019531 C 251.644531 257.019531 257.164062 262.535156 257.164062 269.277344 L 257.164062 382.917969 L 232.648438 382.917969 L 232.648438 269.277344 C 232.648438 262.535156 238.164062 257.019531 244.90625 257.019531 Z M 244.90625 257.019531 "/><g clip-rule="nonzero" clip-path="url(#912ef60676)"><path style="fill:none;stroke-width:6.94;stroke-linecap:butt;stroke-linejoin:miter;stroke:#000000;stroke-opacity:1;stroke-miterlimit:2.613;" d="M 7083.388897 720.461795 C 7312.439657 720.461795 7500.062105 907.95146 7500.062105 1137.135002 L 7500.062105 5000.05946 L 6666.71569 5000.05946 L 6666.71569 1137.135002 C 6666.71569 907.95146 6854.205355 720.461795 7083.388897 720.461795 Z M 7083.388897 720.461795 " transform="matrix(0.0294183,0,0,0.0294183,36.525074,235.824779)"/></g><path style="fill-rule:evenodd;fill:#ffffff;fill-opacity:1;stroke-width:6.94;stroke-linecap:butt;stroke-linejoin:miter;stroke:#000000;stroke-opacity:1;stroke-miterlimit:2.613;" d="M 8749.948944 3987.323146 C 8979.132486 3987.323146 9166.622151 4174.812811 9166.622151 4403.996354 L 9166.622151 5000.05946 L 8333.275736 5000.05946 L 8333.275736 4403.996354 C 8333.275736 4174.812811 8520.898185 3987.323146 8749.948944 3987.323146 Z M 8749.948944 3987.323146 " transform="matrix(0.0294183,0,0,0.0294183,36.525074,235.824779)"/><path style="fill-rule:evenodd;fill:#ffffff;fill-opacity:1;stroke-width:6.94;stroke-linecap:butt;stroke-linejoin:miter;stroke:#000000;stroke-opacity:1;stroke-miterlimit:2.613;" d="M 1249.963994 7097.766066 C 1479.147536 7097.766066 1666.637201 6910.276401 1666.637201 6681.092859 L 1666.637201 5000.05946 L 833.290787 5000.05946 L 833.290787 6681.092859 C 833.290787 6910.276401 1020.780452 7097.766066 1249.963994 7097.766066 Z M 1249.963994 7097.766066 " transform="matrix(0.0294183,0,0,0.0294183,36.525074,235.824779)"/><path style="fill-rule:evenodd;fill:#ffffff;fill-opacity:1;stroke-width:6.94;stroke-linecap:butt;stroke-linejoin:miter;stroke:#000000;stroke-opacity:1;stroke-miterlimit:2.613;" d="M 2916.656824 8776.143804 C 3145.840366 8776.143804 3333.330031 8588.521356 3333.330031 8359.470597 L 3333.330031 4999.926677 L 2499.983616 4999.926677 L 2499.983616 8359.470597 C 2499.983616 8588.521356 2687.473281 8776.143804 2916.656824 8776.143804 Z M 2916.656824 8776.143804 " transform="matrix(0.0294183,0,0,0.0294183,36.525074,235.824779)"/><path style="fill-rule:evenodd;fill:#ffffff;fill-opacity:1;stroke-width:6.94;stroke-linecap:butt;stroke-linejoin:miter;stroke:#000000;stroke-opacity:1;stroke-miterlimit:2.613;" d="M 4583.349653 6862.74007 C 4812.533195 6862.74007 5000.02286 6675.250405 5000.02286 6446.066862 L 5000.02286 4999.926677 L 4166.676446 4999.926677 L 4166.676446 6446.066862 C 4166.676446 6675.250405 4354.166111 6862.74007 4583.349653 6862.74007 Z M 4583.349653 6862.74007 " transform="matrix(0.0294183,0,0,0.0294183,36.525074,235.824779)"/><path style="fill-rule:evenodd;fill:#ffffff;fill-opacity:1;stroke-width:6.94;stroke-linecap:butt;stroke-linejoin:miter;stroke:#000000;stroke-opacity:1;stroke-miterlimit:2.613;" d="M 6250.042483 8046.8993 C 6479.226025 8046.8993 6666.71569 7859.409635 6666.71569 7630.226092 L 6666.71569 5000.05946 L 5833.369275 5000.05946 L 5833.369275 7630.226092 C 5833.369275 7859.409635 6020.85894 8046.8993 6250.042483 8046.8993 Z M 6250.042483 8046.8993 " transform="matrix(0.0294183,0,0,0.0294183,36.525074,235.824779)"/><g clip-rule="nonzero" clip-path="url(#be1bdd6070)"><path style=" stroke:none;fill-rule:evenodd;fill:#ffffff;fill-opacity:1;" d="M 269.421875 508.8125 C 276.160156 508.8125 281.675781 503.296875 281.675781 496.554688 L 281.675781 382.917969 L 257.164062 382.917969 L 257.164062 496.554688 C 257.164062 503.296875 262.679688 508.8125 269.421875 508.8125 Z M 269.421875 508.8125 "/></g><g clip-rule="nonzero" clip-path="url(#5071db9244)"><path style="fill:none;stroke-width:6.94;stroke-linecap:butt;stroke-linejoin:miter;stroke:#000000;stroke-opacity:1;stroke-miterlimit:2.613;" d="M 7916.735312 9279.524342 C 8145.786071 9279.524342 8333.275736 9092.034677 8333.275736 8862.851135 L 8333.275736 5000.05946 L 7500.062105 5000.05946 L 7500.062105 8862.851135 C 7500.062105 9092.034677 7687.55177 9279.524342 7916.735312 9279.524342 Z M 7916.735312 9279.524342 " transform="matrix(0.0294183,0,0,0.0294183,36.525074,235.824779)"/></g><path style=" stroke:none;fill-rule:evenodd;fill:#ffffff;fill-opacity:1;" d="M 318.449219 412.710938 C 325.191406 412.710938 330.707031 407.191406 330.707031 400.453125 L 330.707031 382.914062 L 306.191406 382.914062 L 306.191406 400.453125 C 306.191406 407.191406 311.707031 412.710938 318.449219 412.710938 Z M 318.449219 412.710938 "/><g clip-rule="nonzero" clip-path="url(#06f6872ea7)"><path style="fill:none;stroke-width:6.94;stroke-linecap:butt;stroke-linejoin:miter;stroke:#000000;stroke-opacity:1;stroke-miterlimit:2.613;" d="M 9583.295359 6012.795774 C 9812.478901 6012.795774 9999.968566 5825.173326 9999.968566 5596.122567 L 9999.968566 4999.926677 L 9166.622151 4999.926677 L 9166.622151 5596.122567 C 9166.622151 5825.173326 9354.111816 6012.795774 9583.295359 6012.795774 Z M 9583.295359 6012.795774 " transform="matrix(0.0294183,0,0,0.0294183,36.525074,235.824779)"/></g><g style="fill:#ffffff;fill-opacity:1;"><g transform="translate(368.533288, 432.442702)"><path style="stroke:none" d="M 56.140625 0 L 36.140625 0 L 36.140625 -91.796875 L 3.46875 -91.796875 L 3.46875 -109.703125 L 88.8125 -109.703125 L 88.8125 -91.796875 L 56.140625 -91.796875 Z M 56.140625 0 "/></g></g><g style="fill:#ffffff;fill-opacity:1;"><g transform="translate(460.812534, 432.442702)"><path style="stroke:none" d="M 46.296875 0 L 28.71875 0 L 0.8125 -82.921875 L 21.78125 -82.921875 L 38 -30.328125 L 39.453125 -25.40625 L 39.6875 -25.40625 L 41.21875 -30.328125 L 56.953125 -82.921875 L 71.390625 -82.921875 L 86.546875 -30.890625 L 88.25 -25.40625 L 88.484375 -25.40625 L 90.421875 -31.21875 L 106.640625 -82.921875 L 127.203125 -82.921875 L 99.21875 0 L 81.15625 0 L 63.890625 -53.71875 L 63.8125 -53.71875 Z M 46.296875 0 "/></g></g><g style="fill:#ffffff;fill-opacity:1;"><g transform="translate(588.745112, 432.442702)"><path style="stroke:none" d="M 90.34375 -42.921875 C 90.34375 -41.890625 90.316406 -40.914062 90.265625 -40 C 90.210938 -39.09375 90.101562 -37.859375 89.9375 -36.296875 L 25.171875 -36.296875 C 25.867188 -31.785156 27.304688 -27.941406 29.484375 -24.765625 C 31.660156 -21.585938 34.363281 -19.148438 37.59375 -17.453125 C 40.820312 -15.765625 44.34375 -14.921875 48.15625 -14.921875 C 53.101562 -14.921875 57.109375 -15.898438 60.171875 -17.859375 C 63.242188 -19.828125 65.476562 -22.5625 66.875 -26.0625 L 88.171875 -26.0625 C 87.148438 -22.34375 85.46875 -18.757812 83.125 -15.3125 C 80.78125 -11.875 77.914062 -8.820312 74.53125 -6.15625 C 71.144531 -3.5 67.257812 -1.394531 62.875 0.15625 C 58.488281 1.71875 53.71875 2.5 48.5625 2.5 C 42.320312 2.5 36.578125 1.359375 31.328125 -0.921875 C 26.085938 -3.210938 21.546875 -6.375 17.703125 -10.40625 C 13.859375 -14.4375 10.875 -19.113281 8.75 -24.4375 C 6.625 -29.757812 5.5625 -35.4375 5.5625 -41.46875 C 5.5625 -47.539062 6.625 -53.222656 8.75 -58.515625 C 10.875 -63.816406 13.859375 -68.484375 17.703125 -72.515625 C 21.546875 -76.546875 26.085938 -79.703125 31.328125 -81.984375 C 36.578125 -84.273438 42.320312 -85.421875 48.5625 -85.421875 C 54.800781 -85.421875 60.488281 -84.289062 65.625 -82.03125 C 70.757812 -79.78125 75.164062 -76.675781 78.84375 -72.71875 C 82.53125 -68.769531 85.367188 -64.238281 87.359375 -59.125 C 89.347656 -54.019531 90.34375 -48.617188 90.34375 -42.921875 Z M 25.96875 -51.390625 L 70.421875 -51.390625 C 70.148438 -54.503906 68.992188 -57.335938 66.953125 -59.890625 C 64.910156 -62.441406 62.273438 -64.5 59.046875 -66.0625 C 55.816406 -67.625 52.296875 -68.40625 48.484375 -68.40625 C 45.203125 -68.40625 42.054688 -67.800781 39.046875 -66.59375 C 36.035156 -65.382812 33.382812 -63.523438 31.09375 -61.015625 C 28.8125 -58.515625 27.101562 -55.304688 25.96875 -51.390625 Z M 25.96875 -51.390625 "/></g></g><g style="fill:#ffffff;fill-opacity:1;"><g transform="translate(683.524938, 432.442702)"><path style="stroke:none" d="M 30.96875 0 L 11.453125 0 L 11.453125 -113.65625 L 30.96875 -113.65625 Z M 30.96875 0 "/></g></g><g style="fill:#ffffff;fill-opacity:1;"><g transform="translate(725.873386, 432.442702)"><path style="stroke:none" d="M 52.03125 0 L 33.875 0 L 0.8125 -82.921875 L 21.53125 -82.921875 L 40.8125 -32.828125 L 43 -24.125 L 45.09375 -32.75 L 64.375 -82.921875 L 85.265625 -82.921875 Z M 52.03125 0 "/></g></g><g style="fill:#ffffff;fill-opacity:1;"><g transform="translate(811.860854, 432.442702)"><path style="stroke:none" d="M 90.34375 -42.921875 C 90.34375 -41.890625 90.316406 -40.914062 90.265625 -40 C 90.210938 -39.09375 90.101562 -37.859375 89.9375 -36.296875 L 25.171875 -36.296875 C 25.867188 -31.785156 27.304688 -27.941406 29.484375 -24.765625 C 31.660156 -21.585938 34.363281 -19.148438 37.59375 -17.453125 C 40.820312 -15.765625 44.34375 -14.921875 48.15625 -14.921875 C 53.101562 -14.921875 57.109375 -15.898438 60.171875 -17.859375 C 63.242188 -19.828125 65.476562 -22.5625 66.875 -26.0625 L 88.171875 -26.0625 C 87.148438 -22.34375 85.46875 -18.757812 83.125 -15.3125 C 80.78125 -11.875 77.914062 -8.820312 74.53125 -6.15625 C 71.144531 -3.5 67.257812 -1.394531 62.875 0.15625 C 58.488281 1.71875 53.71875 2.5 48.5625 2.5 C 42.320312 2.5 36.578125 1.359375 31.328125 -0.921875 C 26.085938 -3.210938 21.546875 -6.375 17.703125 -10.40625 C 13.859375 -14.4375 10.875 -19.113281 8.75 -24.4375 C 6.625 -29.757812 5.5625 -35.4375 5.5625 -41.46875 C 5.5625 -47.539062 6.625 -53.222656 8.75 -58.515625 C 10.875 -63.816406 13.859375 -68.484375 17.703125 -72.515625 C 21.546875 -76.546875 26.085938 -79.703125 31.328125 -81.984375 C 36.578125 -84.273438 42.320312 -85.421875 48.5625 -85.421875 C 54.800781 -85.421875 60.488281 -84.289062 65.625 -82.03125 C 70.757812 -79.78125 75.164062 -76.675781 78.84375 -72.71875 C 82.53125 -68.769531 85.367188 -64.238281 87.359375 -59.125 C 89.347656 -54.019531 90.34375 -48.617188 90.34375 -42.921875 Z M 25.96875 -51.390625 L 70.421875 -51.390625 C 70.148438 -54.503906 68.992188 -57.335938 66.953125 -59.890625 C 64.910156 -62.441406 62.273438 -64.5 59.046875 -66.0625 C 55.816406 -67.625 52.296875 -68.40625 48.484375 -68.40625 C 45.203125 -68.40625 42.054688 -67.800781 39.046875 -66.59375 C 36.035156 -65.382812 33.382812 -63.523438 31.09375 -61.015625 C 28.8125 -58.515625 27.101562 -55.304688 25.96875 -51.390625 Z M 25.96875 -51.390625 "/></g></g><g style="fill:#ffffff;fill-opacity:1;"><g transform="translate(906.640681, 432.442702)"><path style="stroke:none" d=""/></g></g><g style="fill:#ffffff;fill-opacity:1;"><g transform="translate(946.891884, 432.442702)"><path style="stroke:none" d="M 33.15625 0 L 13.0625 0 L 13.0625 -109.703125 L 30.578125 -109.703125 L 68.40625 -58.5625 L 106.484375 -109.703125 L 123.984375 -109.703125 L 123.984375 0 L 103.890625 0 L 103.890625 -77.515625 L 71.0625 -32.671875 L 65.65625 -32.671875 L 33.15625 -77.6875 Z M 33.15625 0 "/></g></g><g style="fill:#ffffff;fill-opacity:1;"><g transform="translate(1083.858797, 432.442702)"><path style="stroke:none" d="M 48.71875 2.5 C 43.175781 2.5 38.039062 1.734375 33.3125 0.203125 C 28.582031 -1.328125 24.441406 -3.734375 20.890625 -7.015625 C 17.335938 -10.296875 14.582031 -14.546875 12.625 -19.765625 C 10.664062 -24.984375 9.6875 -31.273438 9.6875 -38.640625 L 9.6875 -82.921875 L 29.046875 -82.921875 L 29.046875 -39.203125 C 29.046875 -31.566406 30.679688 -25.734375 33.953125 -21.703125 C 37.234375 -17.671875 42.128906 -15.65625 48.640625 -15.65625 C 55.203125 -15.65625 60.09375 -17.679688 63.3125 -21.734375 C 66.539062 -25.796875 68.15625 -31.617188 68.15625 -39.203125 L 68.15625 -82.921875 L 87.609375 -82.921875 L 87.609375 -38.640625 C 87.609375 -31.273438 86.625 -24.984375 84.65625 -19.765625 C 82.695312 -14.546875 79.941406 -10.296875 76.390625 -7.015625 C 72.835938 -3.734375 68.707031 -1.328125 64 0.203125 C 59.300781 1.734375 54.207031 2.5 48.71875 2.5 Z M 48.71875 2.5 "/></g></g><g style="fill:#ffffff;fill-opacity:1;"><g transform="translate(1181.139203, 432.442702)"><path style="stroke:none" d="M 41.296875 2.5 C 35.222656 2.5 29.941406 1.691406 25.453125 0.078125 C 20.960938 -1.535156 17.25 -3.710938 14.3125 -6.453125 C 11.382812 -9.191406 9.207031 -12.28125 7.78125 -15.71875 C 6.351562 -19.164062 5.640625 -22.71875 5.640625 -26.375 L 24.359375 -26.296875 C 24.523438 -22.535156 26.03125 -19.375 28.875 -16.8125 C 31.726562 -14.257812 35.925781 -12.984375 41.46875 -12.984375 C 46.519531 -12.984375 50.238281 -13.953125 52.625 -15.890625 C 55.019531 -17.828125 56.21875 -20.351562 56.21875 -23.46875 C 56.21875 -25.832031 55.546875 -27.6875 54.203125 -29.03125 C 52.859375 -30.382812 50.878906 -31.445312 48.265625 -32.21875 C 45.660156 -33 42.476562 -33.660156 38.71875 -34.203125 C 34.738281 -34.742188 30.957031 -35.578125 27.375 -36.703125 C 23.800781 -37.828125 20.644531 -39.382812 17.90625 -41.375 C 15.164062 -43.363281 13 -45.863281 11.40625 -48.875 C 9.820312 -51.894531 9.03125 -55.554688 9.03125 -59.859375 C 9.03125 -64.960938 10.226562 -69.421875 12.625 -73.234375 C 15.019531 -77.054688 18.539062 -80.039062 23.1875 -82.1875 C 27.84375 -84.34375 33.53125 -85.421875 40.25 -85.421875 C 46.914062 -85.421875 52.765625 -84.304688 57.796875 -82.078125 C 62.828125 -79.847656 66.738281 -76.726562 69.53125 -72.71875 C 72.332031 -68.707031 73.734375 -64.070312 73.734375 -58.8125 L 54.609375 -58.96875 C 54.390625 -62.03125 53.082031 -64.539062 50.6875 -66.5 C 48.300781 -68.46875 44.847656 -69.453125 40.328125 -69.453125 C 36.140625 -69.453125 33.078125 -68.550781 31.140625 -66.75 C 29.203125 -64.945312 28.234375 -62.78125 28.234375 -60.25 C 28.234375 -58.207031 28.6875 -56.554688 29.59375 -55.296875 C 30.507812 -54.035156 32.21875 -52.988281 34.71875 -52.15625 C 37.226562 -51.320312 40.847656 -50.523438 45.578125 -49.765625 C 49.878906 -49.117188 53.882812 -48.257812 57.59375 -47.1875 C 61.300781 -46.113281 64.539062 -44.648438 67.3125 -42.796875 C 70.082031 -40.941406 72.242188 -38.546875 73.796875 -35.609375 C 75.359375 -32.679688 76.140625 -29.015625 76.140625 -24.609375 C 76.140625 -18.523438 74.617188 -13.476562 71.578125 -9.46875 C 68.546875 -5.46875 64.40625 -2.472656 59.15625 -0.484375 C 53.914062 1.503906 47.960938 2.5 41.296875 2.5 Z M 41.296875 2.5 "/></g></g><g style="fill:#ffffff;fill-opacity:1;"><g transform="translate(1261.96415, 432.442702)"><path style="stroke:none" d="M 21.046875 -95.828125 C 17.285156 -95.828125 14.34375 -96.914062 12.21875 -99.09375 C 10.09375 -101.269531 9.03125 -103.921875 9.03125 -107.046875 C 9.03125 -110.054688 10.09375 -112.660156 12.21875 -114.859375 C 14.34375 -117.066406 17.316406 -118.171875 21.140625 -118.171875 C 25.054688 -118.171875 28.078125 -117.066406 30.203125 -114.859375 C 32.328125 -112.660156 33.390625 -110.054688 33.390625 -107.046875 C 33.390625 -103.921875 32.328125 -101.269531 30.203125 -99.09375 C 28.078125 -96.914062 25.023438 -95.828125 21.046875 -95.828125 Z M 30.96875 0 L 11.453125 0 L 11.453125 -82.921875 L 30.96875 -82.921875 Z M 30.96875 0 "/></g></g><g style="fill:#ffffff;fill-opacity:1;"><g transform="translate(1304.312598, 432.442702)"><path style="stroke:none" d="M 48.40625 2.5 C 42.21875 2.5 36.515625 1.359375 31.296875 -0.921875 C 26.078125 -3.210938 21.546875 -6.375 17.703125 -10.40625 C 13.859375 -14.4375 10.875 -19.113281 8.75 -24.4375 C 6.625 -29.757812 5.5625 -35.4375 5.5625 -41.46875 C 5.5625 -47.488281 6.625 -53.144531 8.75 -58.4375 C 10.875 -63.738281 13.859375 -68.414062 17.703125 -72.46875 C 21.546875 -76.53125 26.078125 -79.703125 31.296875 -81.984375 C 36.515625 -84.273438 42.21875 -85.421875 48.40625 -85.421875 C 55.550781 -85.421875 61.929688 -84.035156 67.546875 -81.265625 C 73.171875 -78.492188 77.878906 -74.71875 81.671875 -69.9375 C 85.460938 -65.15625 88.140625 -59.722656 89.703125 -53.640625 L 69.78125 -53.640625 C 67.945312 -58.265625 65.117188 -61.691406 61.296875 -63.921875 C 57.484375 -66.160156 53.210938 -67.28125 48.484375 -67.28125 C 45.472656 -67.28125 42.566406 -66.703125 39.765625 -65.546875 C 36.972656 -64.390625 34.457031 -62.707031 32.21875 -60.5 C 29.988281 -58.289062 28.210938 -55.585938 26.890625 -52.390625 C 25.578125 -49.191406 24.921875 -45.550781 24.921875 -41.46875 C 24.921875 -37.375 25.578125 -33.726562 26.890625 -30.53125 C 28.210938 -27.332031 29.988281 -24.613281 32.21875 -22.375 C 34.457031 -20.144531 36.988281 -18.453125 39.8125 -17.296875 C 42.632812 -16.140625 45.523438 -15.5625 48.484375 -15.5625 C 53.210938 -15.5625 57.484375 -16.734375 61.296875 -19.078125 C 65.117188 -21.421875 67.945312 -25.171875 69.78125 -30.328125 L 89.625 -30.328125 C 88.21875 -23.929688 85.601562 -18.257812 81.78125 -13.3125 C 77.96875 -8.363281 73.222656 -4.488281 67.546875 -1.6875 C 61.878906 1.101562 55.5 2.5 48.40625 2.5 Z M 48.40625 2.5 "/></g></g></g></svg>